# xmcd
#
# Track frame offsets:
#	150
#	6024
#	19817
#	36968
#	55414
#	68992
#	91982
#	107043
#	126918
#	140286
#	159596
#	177165
#
# Disc length: 2635 seconds
#
# Revision: 8
# Processed by: cddbd v1.5.2PL0 Copyright (c) Steve Scherf et al.
# Submitted via: Jack! The Knife 20 Magnifico
#
DISCID=9e0a490c
DTITLE=Grave Digger - Return Of The Reaper
DYEAR=2014
DGENRE=Metal
TTITLE0=Return Of The Reaper
TTITLE1=Hell Funeral
TTITLE2=War God
TTITLE3=Tattooed Rider
TTITLE4=Resurrection Day
TTITLE5=Season Of The Witch
TTITLE6=Road Rage Killer
TTITLE7=Grave Desecrator
TTITLE8=Satan's Host
TTITLE9=Dia De Los Muertos
TTITLE10=Death Smiles At All Of Us
TTITLE11=Nothing To Believe
EXTD=Grave Digger
EXTT0=
EXTT1=
EXTT2=
EXTT3=
EXTT4=
EXTT5=
EXTT6=
EXTT7=
EXTT8=
EXTT9=
EXTT10=
EXTT11=
PLAYORDER=
